<svg xmlns="http://www.w3.org/2000/svg" width="17" height="17" version="1.1" viewBox="0 0 17 17"><g id="Page-1" fill="none" fill-rule="evenodd" stroke="none" stroke-width="1"><g id="Group-14" stroke="#757575" transform="translate(1.000000, 1.000000)"><g id="Group-13" transform="translate(0.000000, 5.000000)"><line id="Line-3" x1=".333" x2="4.333" y1="9.667" y2="5.667" stroke-linecap="round" stroke-width="2"/><line id="Line-4" x1="3.667" x2="9.667" y1=".333" y2="6.333" stroke-linecap="round" stroke-width="2"/><path id="Combined-Shape" fill="#757575" d="M4.28248397,1.484274 L8.51579416,5.71737602 C8.27769976,6.20649955 7.91730635,6.62509661 7.47455032,6.93359926 C6.96196778,7.29075549 6.33873562,7.5 5.66666667,7.5 C4.79221581,7.5 4.00054915,7.14555876 3.42749519,6.57250481 C2.85444124,5.99945085 2.5,5.20778419 2.5,4.33333333 C2.5,3.66129239 2.70922705,3.03808416 3.06635609,2.52551377 C3.37483356,2.08277066 3.79339697,1.72238051 4.28248397,1.484274 L4.28248397,1.484274 Z"/></g><g id="Group-13" transform="translate(10.000000, 5.000000) rotate(180.000000) translate(-10.000000, -5.000000) translate(5.000000, 0.000000)"><line id="Line-3" x1=".333" x2="4.333" y1="9.667" y2="5.667" stroke-linecap="round" stroke-width="2"/><line id="Line-4" x1="3.667" x2="9.667" y1=".333" y2="6.333" stroke-linecap="round" stroke-width="2"/><path id="Combined-Shape" fill="#757575" d="M4.28248397,1.484274 L8.51579416,5.71737602 C8.27769976,6.20649955 7.91730635,6.62509661 7.47455032,6.93359926 C6.96196778,7.29075549 6.33873562,7.5 5.66666667,7.5 C4.79221581,7.5 4.00054915,7.14555876 3.42749519,6.57250481 C2.85444124,5.99945085 2.5,5.20778419 2.5,4.33333333 C2.5,3.66129239 2.70922705,3.03808416 3.06635609,2.52551377 C3.37483356,2.08277066 3.79339697,1.72238051 4.28248397,1.484274 L4.28248397,1.484274 Z"/></g></g></g></svg>